<svg xmlns="http://www.w3.org/2000/svg" width="1280" height="760" viewBox="0 0 1280 760" role="img" aria-labelledby="title desc">
  <title id="title">Agent Reliability Control Center overview</title>
  <desc id="desc">A browser dashboard with support case cards, orchestrator gates, tabs, and a right-side timeline.</desc>
  <rect width="1280" height="760" fill="#f4f7f8"/>
  <rect x="48" y="42" width="1184" height="676" rx="24" fill="#ffffff" stroke="#d7dee9"/>
  <text x="84" y="98" fill="#17202e" font-family="Inter, Arial, sans-serif" font-size="34" font-weight="900">Agent Reliability Control Center</text>
  <text x="84" y="128" fill="#647084" font-family="Inter, Arial, sans-serif" font-size="17">Validate state, handoffs, and outcomes before agents continue.</text>
  <rect x="84" y="170" width="742" height="118" rx="14" fill="#fff8f6" stroke="#efb8b3"/>
  <text x="116" y="220" fill="#ba2b24" font-family="Inter, Arial, sans-serif" font-size="28" font-weight="900">False success prevented</text>
  <text x="116" y="254" fill="#647084" font-family="Inter, Arial, sans-serif" font-size="17">Refund provider returned pending, so the customer response was suppressed.</text>
  <g font-family="Inter, Arial, sans-serif">
    <rect x="84" y="320" width="210" height="118" rx="12" fill="#fffdf8" stroke="#d7dee9"/>
    <rect x="314" y="320" width="150" height="118" rx="12" fill="#ffffff" stroke="#d7dee9"/>
    <rect x="484" y="320" width="150" height="118" rx="12" fill="#ffffff" stroke="#d7dee9"/>
    <rect x="654" y="320" width="172" height="118" rx="12" fill="#f8fbff" stroke="#d7dee9"/>
    <text x="110" y="354" fill="#126b68" font-size="12" font-weight="800">SUPPORT TICKET</text>
    <text x="110" y="386" fill="#17202e" font-size="18" font-weight="800">Damaged item refund</text>
    <text x="336" y="354" fill="#126b68" font-size="12" font-weight="800">POLICY</text>
    <text x="336" y="386" fill="#17202e" font-size="18" font-weight="800">v12 / v12</text>
    <text x="506" y="354" fill="#126b68" font-size="12" font-weight="800">RISK</text>
    <text x="506" y="386" fill="#17202e" font-size="18" font-weight="800">approved</text>
    <text x="676" y="354" fill="#126b68" font-size="12" font-weight="800">PROVIDER</text>
    <text x="676" y="386" fill="#ba2b24" font-size="18" font-weight="800">pending</text>
    <rect x="84" y="470" width="742" height="116" rx="14" fill="#f8fbff" stroke="#d7dee9"/>
    <text x="116" y="514" fill="#17202e" font-size="21" font-weight="800">Orchestrator gate</text>
    <text x="116" y="548" fill="#647084" font-size="16">04-refund blocked downstream execution; gate result: blocked.</text>
    <rect x="866" y="170" width="300" height="416" rx="14" fill="#ffffff" stroke="#d7dee9"/>
    <text x="900" y="214" fill="#17202e" font-size="22" font-weight="800">Agent timeline</text>
    <circle cx="916" cy="272" r="17" fill="#f5fbf7" stroke="#18764b" stroke-width="3"/><text x="951" y="278" fill="#17202e" font-size="16" font-weight="800">Intake</text>
    <circle cx="916" cy="334" r="17" fill="#f5fbf7" stroke="#18764b" stroke-width="3"/><text x="951" y="340" fill="#17202e" font-size="16" font-weight="800">Policy</text>
    <circle cx="916" cy="396" r="17" fill="#f5fbf7" stroke="#18764b" stroke-width="3"/><text x="951" y="402" fill="#17202e" font-size="16" font-weight="800">Risk</text>
    <circle cx="916" cy="458" r="17" fill="#fff7f5" stroke="#ba2b24" stroke-width="3"/><text x="951" y="464" fill="#17202e" font-size="16" font-weight="800">Refund blocked</text>
    <circle cx="916" cy="520" r="17" fill="#fbf7ef" stroke="#e5c48d" stroke-width="3"/><text x="951" y="526" fill="#647084" font-size="16" font-weight="800">Comms skipped</text>
    <path d="M916 289 V317 M916 351 V379 M916 413 V441 M916 475 V503" stroke="#d7dee9" stroke-width="4"/>
  </g>
</svg>
