<svg xmlns="http://www.w3.org/2000/svg" width="1200" height="675" viewBox="0 0 1200 675" role="img" aria-label="Demo preview placeholder">
  <rect width="1200" height="675" fill="#f4f7f8"/>
  <rect x="42" y="42" width="1116" height="591" rx="8" fill="#ffffff" stroke="#d7dee8" stroke-width="2"/>
  <rect x="82" y="92" width="270" height="491" rx="8" fill="#eef3f5"/>
  <rect x="384" y="92" width="448" height="491" rx="8" fill="#fbfcfd" stroke="#d7dee8"/>
  <rect x="864" y="92" width="254" height="491" rx="8" fill="#ffffff" stroke="#d7dee8"/>
  <g fill="none" stroke-width="8" stroke-linecap="round">
    <path d="M442 332h74" stroke="#177245"/>
    <path d="M558 332h74" stroke="#177245"/>
    <path d="M674 332h74" stroke="#b42318" stroke-dasharray="32 26"/>
  </g>
  <g fill="#ffffff" stroke="#17202e" stroke-width="3">
    <rect x="418" y="270" width="84" height="124" rx="8"/>
    <rect x="536" y="270" width="84" height="124" rx="8"/>
    <rect x="654" y="270" width="84" height="124" rx="8"/>
    <rect x="772" y="270" width="84" height="124" rx="8"/>
  </g>
  <path d="M736 284h44v58c0 31-18 49-44 60-26-11-44-29-44-60v-58h44z" fill="#fff7f5" stroke="#b42318" stroke-width="4"/>
  <text x="600" y="548" text-anchor="middle" font-family="ui-monospace, SFMono-Regular, Menlo, monospace" font-size="24" fill="#17202e">Demo preview - replace with real capture</text>
  <!-- TODO: Replace this placeholder with the real blocked-moment GIF capture. -->
</svg>
